<?xml version="1.0" encoding="utf-8"?>
<!-- Generator: Adobe Illustrator 25.2.1, SVG Export Plug-In . SVG Version: 6.00 Build 0)  -->
<svg version="1.1" id="Capa_1" xmlns="http://www.w3.org/2000/svg" xmlns:xlink="http://www.w3.org/1999/xlink" x="0px" y="0px"
	 viewBox="0 0 60 60" style="enable-background:new 0 0 60 60;" xml:space="preserve">
<path d="M6,14c-1.1,0-2,0.9-2,2c0,1.1,0.9,2,2,2c0,0,0,0,0.1,0h48c1.1,0,2-0.9,2-2c0-1.1-0.9-2-2-2c0,0,0,0-0.1,0H6z M20.5,28
	c-0.8,0-1.4,0.9-1.4,2c0,1.1,0.6,2,1.4,2c0,0,0,0,0,0h34.1c0.8,0,1.4-0.9,1.4-2c0-1.1-0.6-2-1.4-2c0,0,0,0,0,0H20.5z M6,42
	c-1.1,0-2,0.9-2,2c0,1.1,0.9,2,2,2c0,0,0,0,0.1,0h48c1.1,0,2-0.9,2-2s-0.9-2-2-2c0,0,0,0-0.1,0H6z"/>
</svg>
