<svg xmlns="http://www.w3.org/2000/svg" viewBox="0 0 35.71 40.04"><g id="Capa_2" data-name="Capa 2"><g id="Capa_1-2" data-name="Capa 1"><path d="M35.28.56A1.66,1.66,0,0,0,34,0H1.67A1.64,1.64,0,0,0,.43.56,1.66,1.66,0,0,0,0,1.86L3.69,35a1.67,1.67,0,0,0,1.2,1.43L17.39,40a1.82,1.82,0,0,0,.46.06,1.76,1.76,0,0,0,.46-.06l12.5-3.57A1.67,1.67,0,0,0,32,35L35.7,1.86A1.66,1.66,0,0,0,35.28.56Zm-8,11.86H12.34l.35,4.25H26.9L25.84,29.22l-8,2.53-.08,0L9.89,29.21,9.46,24.1h3.86l.17,2,4.41,1,4.33-1,.46-5.37H9.17L8.12,8.36H27.61Z"/></g></g></svg>