<svg xmlns="http://www.w3.org/2000/svg" viewBox="0 0 36.99 26.03"><g id="Capa_2" data-name="Capa 2"><g id="Capa_1-2" data-name="Capa 1"><path d="M11,0V17.23c0,2.64-1,3.32-2.74,3.32A4.5,4.5,0,0,1,4.3,17.94L0,20.55A9.62,9.62,0,0,0,8.54,26c4.69,0,7.9-2.49,7.9-8V0ZM28,0c-4.67,0-7.66,3-7.66,6.91,0,4.25,2.51,6.27,6.29,7.87l1.3.56c2.38,1.05,3.56,1.68,3.56,3.48,0,1.49-1.13,2.57-3.3,2.57-2.58,0-3.8-1.75-4.92-3.58l-4.11,2.74A9.55,9.55,0,0,0,28.33,26c5,0,8.66-2.58,8.66-7.28,0-4.37-2.5-6.31-7-8.22L28.73,10c-2.24-1-3.21-1.61-3.21-3.18A2.27,2.27,0,0,1,28,4.56c1.51,0,2.47.64,3.36,2.24l4.07-2.61A7.71,7.71,0,0,0,28,0Z"/></g></g></svg>