<svg xmlns="http://www.w3.org/2000/svg" viewBox="0 0 50.76 50.76"><g id="Capa_2" data-name="Capa 2"><g id="Capa_1-2" data-name="Capa 1"><path d="M5.64,0A5.66,5.66,0,0,0,0,5.64V45.12a5.66,5.66,0,0,0,5.64,5.64H45.12a5.66,5.66,0,0,0,5.64-5.64V5.64A5.66,5.66,0,0,0,45.12,0Zm0,5.64H45.12V45.12H5.64Zm5.64,8.46V36.39H16V28.52h3.14c3.41,0,7.09-1.83,7.09-7.08,0-1.31-.79-7.34-7.35-7.34ZM16,17.77h3.14c1.84,0,2.63,1.83,2.63,3.67s-.53,3.41-2.63,3.41H16Zm18.32,1.84c-2.1,0-5.78,1.05-5.78,5,0,5.25,7.61,5,7.61,7.35,0,1.05-.78,1.57-1.83,1.57a2.09,2.09,0,0,1-2.1-2.36H28c0,2.62,2.1,5.51,6.3,5.51,2.1,0,6-.79,6-4.72,0-5.77-7.6-5-7.6-7.61a1.51,1.51,0,0,1,1.57-1.57c1,0,1.57.78,1.57,2.09h4.46C40.35,22,38.25,19.61,34.32,19.61Z"/></g></g></svg>