<svg xmlns="http://www.w3.org/2000/svg" viewBox="0 0 39 37.4"><g id="Capa_2" data-name="Capa 2"><g id="Capa_1-2" data-name="Capa 1"><path d="M10.87,2.43c-1.71,2.73-1.75,4-.21,6.09,1,1.41,1.1,2.56.21,2.56S8,7.93,7.71,6.05c-.21-1.32-.46-1.62-1.4-1.7C5.16,4.22,2.73,5.29.94,6.69L0,7.46.09,22.33C.17,33.16.34,37.25.72,37.38c.73.26,2.43-1.79,3.84-4.52,1.71-3.36,1.62-5.67-.43-10.23-1.19-2.73-1.44-3.71-1.06-4,.77-.47,1.36.3,2.85,3.75,1.75,4.09,2,6,1.16,8.74-.81,2.38-.56,2.94,1.23,2.94.94,0,3.62-1.49,3.62-2A10.12,10.12,0,0,0,11,30c-.81-1.49-.86-1.91-.39-2.34s.64-.43,1.07.26c.25.42,1,1.62,1.62,2.64,2,3.24,7.2,6.14,11,6.14,1.87,0,2.13-.39.85-1.16s-2.3-3.11-1.75-3.66c.34-.34.94,0,2.09,1.32A5.77,5.77,0,0,0,28,35a5.66,5.66,0,0,1,2.26.9l1.45.89,1-1.06a6.74,6.74,0,0,0,1.24-5.59c-.26-1-.39-1-1.32-.59s-1.2.38-1.62-.05-.34-.64.3-1.06c3.36-2.09,5.28-3.75,6.43-5.54S39,20.33,39,17.73A10.31,10.31,0,0,0,38.15,13c-1-2.05-2.09-2.26-2.26-.43-.3,3-1.37,5.67-2.86,7s-3.92,2.09-5.15,1.62c-1-.38-.47-1.32.85-1.45,1-.13,1.11-.3.85-1.06C29,16.71,28.22,15,27.75,14.75c-.26-.17-1.37.47-2.47,1.4A10.78,10.78,0,0,1,23,17.9c-.73,0-3.41-3.49-3.88-5.07A11.27,11.27,0,0,0,17.3,9.5C16.15,8.1,16,7.59,16,5.2s-.08-2.81-1.4-4A5.89,5.89,0,0,0,12.83,0,8.75,8.75,0,0,0,10.87,2.43Zm10.27,20.2a.75.75,0,0,1-1.15.94.82.82,0,0,1,.47-1.41A1,1,0,0,1,21.14,22.63Zm8.14,8.27c1,.3,0,1.49-1.15,1.49s-2.39-1-1.92-1.7C26.43,30.3,27.58,30.39,29.28,30.9Z"/></g></g></svg>