<svg xmlns="http://www.w3.org/2000/svg" viewBox="0 0 33.07 33.07"><g id="Capa_2" data-name="Capa 2"><g id="Capa_1-2" data-name="Capa 1"><path d="M25.54,9.77A28.94,28.94,0,0,1,25.29,19a.37.37,0,0,0,.58.38c.41-.28.87-.6,1.1-.78a33.55,33.55,0,0,0,5-4.82,1.48,1.48,0,0,0,.32-1.35,16.69,16.69,0,0,0-8-10.18.38.38,0,0,0-.54.46A32.85,32.85,0,0,1,25.54,9.77Zm-6.8.24a1.48,1.48,0,0,0-1.17-.28,27.64,27.64,0,0,0-5.64,1.65,1.44,1.44,0,0,0-.83.86A26.89,26.89,0,0,0,9.72,17.9,1.43,1.43,0,0,0,10.06,19a27,27,0,0,0,4.26,4,1.54,1.54,0,0,0,1.18.28,27.83,27.83,0,0,0,5.64-1.65,1.49,1.49,0,0,0,.83-.86,27.13,27.13,0,0,0,1.38-5.67A1.48,1.48,0,0,0,23,14,27.05,27.05,0,0,0,18.74,10ZM15.26,5.12A29,29,0,0,1,23.09,10a.38.38,0,0,0,.63-.31,32.52,32.52,0,0,0-1.8-8.15,1.49,1.49,0,0,0-1-1A16.56,16.56,0,0,0,8.09,2.4a.39.39,0,0,0,.14.71A32.54,32.54,0,0,1,15.26,5.12ZM7.53,23.3a29,29,0,0,1,.24-9.19.37.37,0,0,0-.57-.38,32.13,32.13,0,0,0-6.12,5.6,1.47,1.47,0,0,0-.31,1.35,16.63,16.63,0,0,0,8,10.18.38.38,0,0,0,.54-.46A32.85,32.85,0,0,1,7.53,23.3ZM27.1,21.09A29.43,29.43,0,0,1,19,25.52a.38.38,0,0,0-.05.7,32.59,32.59,0,0,0,8,2.51,1.5,1.5,0,0,0,1.34-.41,16.71,16.71,0,0,0,4.84-10.69c0-.22,0-.85,0-1.44a.38.38,0,0,0-.67-.24A33,33,0,0,1,27.1,21.09ZM17.8,28A29.17,29.17,0,0,1,10,23.1a.37.37,0,0,0-.62.31,33,33,0,0,0,1.79,8.15,1.49,1.49,0,0,0,1,.95A16.41,16.41,0,0,0,25,30.66a.38.38,0,0,0-.13-.7A33.2,33.2,0,0,1,17.8,28ZM6,12a29.34,29.34,0,0,1,8.16-4.43.38.38,0,0,0,.05-.7,32.66,32.66,0,0,0-8-2.51,1.5,1.5,0,0,0-1.34.41A16.69,16.69,0,0,0,0,15.05c0,.3,0,1.12,0,1.82a.38.38,0,0,0,.68.24A32.88,32.88,0,0,1,6,12Z"/></g></g></svg>