<svg xmlns="http://www.w3.org/2000/svg" viewBox="0 0 34.49 39.47"><g id="Capa_2" data-name="Capa 2"><g id="Capa_1-2" data-name="Capa 1"><path d="M.05.48c0,.27.74,8.26,1.58,17.76C2.31,26,2.91,32.57,3.12,34.77a1.13,1.13,0,0,0,.83,1c1.17.34,3.57,1,6.32,1.78L17,39.43a1.2,1.2,0,0,0,.65,0l6.71-1.88,6.31-1.78a1.14,1.14,0,0,0,.83-1c.42-4.56,2.5-27.69,3-33.46A1.19,1.19,0,0,0,33.29,0H0ZM28.23,7.62c0,.21-.48,5.19-1,11.09-.4,4.51-.76,8.41-.93,10a1.13,1.13,0,0,1-.83,1l-3.74,1.05-4.1,1.12a1.16,1.16,0,0,1-.64,0l-4.1-1.12L9.14,29.71a1.16,1.16,0,0,1-.83-1C8.12,27,7.74,23,7.73,22.59c0-.12.16-.13,2.16-.13a8.12,8.12,0,0,1,2.2.09c0,.06.1.88.19,1.83,0,.34.06.66.09.93a1.2,1.2,0,0,0,.88,1c1.35.37,3.95,1,4,1s2.73-.69,4.09-1.06a1.21,1.21,0,0,0,.88-1c0-.5.13-1.21.22-2,.17-1.52.31-2.88.34-3l0-.24H8.58A1.2,1.2,0,0,1,7.39,19c-.06-.53-.12-1.16-.17-1.71A1.19,1.19,0,0,1,8.39,16c1.43,0,3.94-.07,6.78-.1s5.56-.07,7-.1a1.19,1.19,0,0,0,1.17-1.1c0-.27,0-.57.07-.89.06-1.07.14-2,.17-2.19l0-.26-8.45,0-8.45,0,0-.43c0-.23-.07-1-.12-1.66s-.1-1.42-.12-1.64l0-.4H28.27Z"/></g></g></svg>