<svg xmlns="http://www.w3.org/2000/svg" viewBox="0 0 59.18 44.35"><g id="Capa_2" data-name="Capa 2"><g id="Capa_1-2" data-name="Capa 1"><path d="M50.93,25.49a12.22,12.22,0,0,0-5.37,1.25A11.23,11.23,0,0,1,44.37,24a7.35,7.35,0,0,1-.11-2.33,19.76,19.76,0,0,1,.7-2.51c0-.11-.13-.62-1.32-.63s-2.21.23-2.33.55a10.06,10.06,0,0,0-.5,1.76c-.21,1.08-2.38,4.94-3.61,7a7,7,0,0,1-.82-2,7.16,7.16,0,0,1-.1-2.34A20.91,20.91,0,0,1,37,20.88c0-.11-.12-.61-1.32-.62s-2.21.23-2.33.54-.25,1.05-.49,1.76-3.14,7.15-3.89,8.82c-.39.85-.72,1.53-1,2h0a.37.37,0,0,1,0,.09c-.2.4-.32.62-.32.62h0c-.16.29-.33.57-.42.57a3.7,3.7,0,0,1,0-1.84c.43-2.24,1.46-5.72,1.45-5.84s.19-.67-.67-1a1.07,1.07,0,0,0-1.22.2c-.08,0-.13.18-.13.18s.93-3.91-1.79-3.91c-1.71,0-4.07,1.86-5.23,3.55l-4,2.18-1.91,1-.13-.14c-3.3-3.53-9.42-6-9.16-10.76.1-1.73.7-6.27,11.75-11.77,9.05-4.51,16.3-3.27,17.55-.52C35.55,10,29.89,17.28,20.49,18.34c-3.59.4-5.47-1-5.94-1.51s-.57-.57-.75-.46-.11.64,0,.93A5.55,5.55,0,0,0,17.19,20c1.73.57,5.94.88,11-1.09,5.7-2.2,10.15-8.33,8.84-13.45s-10-6.93-18.14-4A41.16,41.16,0,0,0,5,9.39C.48,13.61-.24,17.27.06,18.8c1.05,5.45,8.55,9,11.56,11.62l-.42.23c-1.5.74-7.22,3.74-8.65,6.9-1.63,3.58.25,6.16,1.5,6.51a9.24,9.24,0,0,0,10-4,10,10,0,0,0,.89-9.19.43.43,0,0,1,0-.07L16,30.07c.77-.45,1.52-.87,2.17-1.23a14.84,14.84,0,0,0-.77,3.94c-.16,2,.67,4.67,1.76,5.7a1.92,1.92,0,0,0,1.43.47c1.27,0,1.85-1.06,2.49-2.31.78-1.53,1.48-3.32,1.48-3.32s-.88,4.82,1.5,4.82c.86,0,1.74-1.12,2.12-1.69h0l.07-.11.14-.23v0c.34-.61,1.12-2,2.27-4.26,1.5-2.93,2.93-6.61,2.93-6.61a21.54,21.54,0,0,0,.57,2.39,23.5,23.5,0,0,0,1.24,2.77c-.35.48-.56.75-.56.75v0c-.27.37-.58.76-.91,1.15a33,33,0,0,0-2.77,3.47.94.94,0,0,0,.26,1.27,2.28,2.28,0,0,0,1.45.24,6.53,6.53,0,0,0,2.17-.5,7,7,0,0,0,1.87-1,4.15,4.15,0,0,0,1.79-3.68,7.26,7.26,0,0,0-.68-2.6l.32-.46a50.46,50.46,0,0,0,3.24-5.6,18.66,18.66,0,0,0,.57,2.38,16.19,16.19,0,0,0,1.05,2.38,10.07,10.07,0,0,0-3.15,4.08c-.68,2-.15,2.85.85,3.06a3.14,3.14,0,0,0,1.58-.32,7.34,7.34,0,0,0,2-1,4.49,4.49,0,0,0,2.21-3.66,7.14,7.14,0,0,0-.5-2.16A11.23,11.23,0,0,1,52,27.54c5.15.6,6.16,3.81,6,5.16A3.41,3.41,0,0,1,56.29,35c-.36.23-.47.3-.44.47s.21.23.52.18a4,4,0,0,0,2.8-3.58C59.3,28.93,56.27,25.47,50.93,25.49ZM11.26,38.87c-1.71,1.86-4.09,2.56-5.11,2s-.67-3.38,1.43-5.35a27,27,0,0,1,4-3l1.06-.63.11-.07h0l.26-.16A7.38,7.38,0,0,1,11.26,38.87Zm12.42-8.45c-.6,1.45-1.84,5.15-2.6,5s-1-3-.13-5.76a12.89,12.89,0,0,1,2-3.71c.93-1,1.95-1.38,2.2-1S24.05,29.52,23.68,30.42Zm10.26,4.9c-.26.13-.49.21-.59.15s.1-.22.1-.22,1.28-1.38,1.79-2c.29-.36.64-.8,1-1.28v.14C36.25,33.75,34.65,34.87,33.94,35.32Zm7.9-1.8c-.19-.14-.15-.57.46-1.91a7.21,7.21,0,0,1,1.76-2.27,3.36,3.36,0,0,1,.18,1A3.27,3.27,0,0,1,41.84,33.52Z"/></g></g></svg>