<svg xmlns="http://www.w3.org/2000/svg" viewBox="0 0 37.22 31.58"><g id="Capa_2" data-name="Capa 2"><g id="Capa_1-2" data-name="Capa 1"><path d="M19.26,0h-.48a2.43,2.43,0,0,0-1.26,4.31L20.2,6.47H6.45a2.43,2.43,0,0,0,0,4.86h6L.94,20.65A2.55,2.55,0,0,0,0,22.35,2.52,2.52,0,0,0,.56,24.2a2.48,2.48,0,0,0,1.7.92,2.52,2.52,0,0,0,1.85-.54L9.72,20c.47,6.44,6.45,11.54,13.73,11.54,7.6,0,13.77-5.54,13.77-12.35a12,12,0,0,0-6.3-10.37L20.57.54A2.37,2.37,0,0,0,19.26,0Zm4.19,12.13c4,0,7.29,2.73,7.29,6.08s-3.27,6.07-7.29,6.07-7.28-2.72-7.28-6.07S19.44,12.14,23.45,12.14Zm0,1.62c-2.68,0-4.85,1.82-4.85,4s2.17,4.05,4.85,4.05,4.86-1.81,4.86-4.05S26.14,13.76,23.45,13.76Z"/></g></g></svg>