<svg xmlns="http://www.w3.org/2000/svg" viewBox="0 0 43.15 38.9"><g id="Capa_2" data-name="Capa 2"><g id="Capa_1-2" data-name="Capa 1"><path d="M13.81,0a6,6,0,0,0-3,.77C8,2.39,6.89,6.36,7.46,11.3,2.9,13.28,0,16.19,0,19.45s2.9,6.17,7.46,8.15c-.57,4.94.51,8.91,3.33,10.53a6,6,0,0,0,3,.77c2.34,0,5-1.18,7.76-3.19,2.72,2,5.43,3.19,7.78,3.19a6,6,0,0,0,3-.77c2.82-1.62,3.89-5.59,3.32-10.53,4.56-2,7.46-4.89,7.46-8.15s-2.9-6.17-7.46-8.15c.57-4.94-.51-8.91-3.33-10.53a5.86,5.86,0,0,0-3-.77C27,0,24.29,1.18,21.57,3.19,18.86,1.18,16.15,0,13.81,0Zm0,3.15a10.22,10.22,0,0,1,5.28,2.13,34.91,34.91,0,0,0-3.47,3.81,35.76,35.76,0,0,0-5.1,1.11c0-.11,0-.22,0-.33-.19-3.2.51-5.59,1.88-6.38A2.85,2.85,0,0,1,13.81,3.15Zm15.53,0a2.88,2.88,0,0,1,1.45.34c1.37.79,2.07,3.18,1.88,6.38,0,.11,0,.22,0,.33a35.6,35.6,0,0,0-5.11-1.11,33.87,33.87,0,0,0-3.46-3.81A10.22,10.22,0,0,1,29.34,3.15ZM21.57,7.28c.49.44,1,.91,1.47,1.42-.49,0-1,0-1.47,0s-1,0-1.45,0C20.61,8.19,21.09,7.72,21.57,7.28Zm0,4.53a38.25,38.25,0,0,1,4.25.23,38.5,38.5,0,0,1,2.37,3.59,37,37,0,0,1,1.93,3.82,36,36,0,0,1-1.93,3.82,36.42,36.42,0,0,1-2.37,3.58,39.47,39.47,0,0,1-4.25.24,38.07,38.07,0,0,1-4.24-.23A38.5,38.5,0,0,1,15,23.27,36,36,0,0,1,13,19.45,37,37,0,0,1,15,15.63a37.65,37.65,0,0,1,2.37-3.58A39.43,39.43,0,0,1,21.57,11.81Zm8.54,1c.71.17,1.4.36,2,.57-.15.66-.32,1.33-.53,2-.23-.43-.45-.87-.7-1.3S30.38,13.21,30.11,12.78ZM13,12.79c-.27.42-.55.82-.81,1.27s-.47.86-.71,1.3c-.2-.68-.38-1.36-.53-2C11.65,13.14,12.33,13,13,12.79ZM8,14.5a36.18,36.18,0,0,0,1.58,4.95A35.86,35.86,0,0,0,8,24.38C4.91,22.87,3.15,21,3.15,19.45s1.71-3.38,4.58-4.81Zm27.08,0C38.24,16,40,17.91,40,19.45s-1.71,3.38-4.58,4.81l-.31.14a34.77,34.77,0,0,0-1.57-4.95A35.86,35.86,0,0,0,35.11,14.52ZM21.57,15.85a3.6,3.6,0,1,0,3.6,3.6A3.6,3.6,0,0,0,21.57,15.85Zm-10,7.69c.24.44.46.87.71,1.3s.54.85.81,1.28c-.71-.17-1.4-.36-2-.57C11.14,24.89,11.32,24.22,11.52,23.54Zm20.1,0c.21.68.39,1.36.53,2-.65.2-1.34.39-2,.55.27-.42.55-.82.81-1.27S31.39,24,31.62,23.54ZM10.52,28.7a35.6,35.6,0,0,0,5.11,1.11,34,34,0,0,0,3.46,3.82,10.3,10.3,0,0,1-5.28,2.13,2.86,2.86,0,0,1-1.45-.35C11,34.62,10.29,32.24,10.48,29,10.49,28.93,10.51,28.81,10.52,28.7Zm22.11,0c0,.11,0,.23,0,.34.19,3.2-.51,5.58-1.88,6.37a2.88,2.88,0,0,1-1.45.35,10.3,10.3,0,0,1-5.28-2.13,35,35,0,0,0,3.47-3.82A35.76,35.76,0,0,0,32.63,28.7ZM20.11,30.2c.49,0,1,0,1.46,0s1,0,1.47,0c-.49.51-1,1-1.47,1.42C21.09,31.18,20.6,30.71,20.11,30.2Z"/></g></g></svg>