<svg xmlns="http://www.w3.org/2000/svg" viewBox="0 0 39.83 39.83"><g id="Capa_2" data-name="Capa 2"><g id="Capa_1-2" data-name="Capa 1"><path d="M4.43,0A4.43,4.43,0,0,0,0,4.43v31a4.42,4.42,0,0,0,4.43,4.42h31a4.42,4.42,0,0,0,4.42-4.42v-31A4.42,4.42,0,0,0,35.41,0Zm0,4.43h31v31h-31ZM28.7,9.52v7A3.28,3.28,0,0,0,26,15.14a3.86,3.86,0,0,0-3.39,1.7A9.16,9.16,0,0,0,21.44,22v1.06A8.9,8.9,0,0,0,22.62,28,3.84,3.84,0,0,0,26,29.69,3.35,3.35,0,0,0,28.89,28l.17,1.43h3.33V9.52Zm-12.65,1L13.51,17,11,10.55H6.59L11,19.91,6.5,29.43h4.43l2.58-6.6,2.59,6.6h4.42L16,19.91l4.44-9.36Zm11,7.66a1.74,1.74,0,0,1,1.63,1v6.41a1.78,1.78,0,0,1-1.64,1,1.54,1.54,0,0,1-1.49-.82,6.6,6.6,0,0,1-.45-2.9v-1A6.36,6.36,0,0,1,25.59,19,1.59,1.59,0,0,1,27.07,18.21Z"/></g></g></svg>