<svg xmlns="http://www.w3.org/2000/svg" viewBox="0 0 39.83 39.83"><defs><style>.cls-1{fill:#fff;}</style></defs><g id="Capa_2" data-name="Capa 2"><g id="Capa_1-2" data-name="Capa 1"><path d="M4.43,0A4.43,4.43,0,0,0,0,4.43v31a4.42,4.42,0,0,0,4.43,4.42h31a4.42,4.42,0,0,0,4.42-4.42v-31A4.42,4.42,0,0,0,35.41,0Zm0,4.43h31v31h-31Z"/><path d="M19.65,29.24l-1-3.8H13.55l-1,3.8h-4l5.79-18.55h3.43l5.83,18.55Zm9.34,0H25.37V15.45H29Zm-.39-16a1.88,1.88,0,0,1-1.43.55,1.84,1.84,0,0,1-2-1.92,1.86,1.86,0,0,1,.53-1.38A1.92,1.92,0,0,1,27.17,10a1.89,1.89,0,0,1,1.42.53,1.87,1.87,0,0,1,.54,1.38A1.89,1.89,0,0,1,28.6,13.26Z"/><path class="cls-1" d="M14.37,22.32h3.46L16.1,15.71Z"/></g></g></svg>