<?xml version="1.0" standalone="no"?>
<!DOCTYPE svg PUBLIC "-//W3C//DTD SVG 20010904//EN"
 "http://www.w3.org/TR/2001/REC-SVG-20010904/DTD/svg10.dtd">
<svg version="1.0" xmlns="http://www.w3.org/2000/svg"
 width="4020.000000pt" height="2448.000000pt" viewBox="0 0 4020.000000 2448.000000"
 preserveAspectRatio="xMidYMid meet">
<metadata>
Created by potrace 1.16, written by Peter Selinger 2001-2019
</metadata>
<g transform="translate(0.000000,2448.000000) scale(0.100000,-0.100000)"
fill="#000000" stroke="none">
<path d="M17525 16930 c-374 -48 -769 -180 -1088 -363 -524 -300 -962 -711
-1383 -1297 -283 -394 -524 -832 -754 -1371 -381 -892 -598 -1702 -689 -2564
-38 -365 -50 -1009 -25 -1395 15 -240 73 -585 144 -865 104 -410 309 -842 548
-1160 102 -135 146 -184 247 -275 426 -384 924 -598 1556 -670 118 -14 471
-13 579 0 372 47 720 165 1045 353 604 349 1047 868 1767 2067 198 329 558
944 656 1120 14 25 71 126 127 225 126 221 183 323 222 395 17 30 81 147 143
260 62 113 140 255 173 315 75 138 82 152 202 368 54 98 102 174 106 170 11
-11 160 -239 212 -325 87 -143 370 -613 449 -748 171 -290 423 -717 471 -800
27 -47 71 -121 97 -165 26 -44 57 -96 68 -115 56 -99 288 -493 321 -545 21
-33 87 -139 146 -235 113 -183 321 -516 390 -623 222 -346 491 -689 715 -910
413 -408 830 -637 1390 -762 257 -57 356 -68 615 -68 187 0 256 4 370 22 485
75 889 264 1285 601 273 232 474 487 634 807 158 316 252 590 320 933 53 268
68 436 73 842 9 635 -47 1244 -176 1913 -134 694 -390 1529 -645 2100 -75 166
-223 457 -286 559 -22 37 -40 68 -40 70 0 3 -34 60 -76 128 -447 719 -922
1224 -1459 1548 -499 302 -981 452 -1501 467 -508 15 -913 -84 -1391 -340
-432 -231 -822 -579 -1208 -1078 -105 -136 -299 -391 -353 -463 -47 -63 -118
-159 -163 -218 -16 -21 -17 -20 -72 53 -179 239 -347 435 -584 685 -422 444
-797 732 -1263 968 -404 205 -801 332 -1210 386 -199 26 -501 26 -705 0z
m7120 -1299 c159 -33 313 -86 458 -159 423 -214 737 -520 1099 -1072 183 -278
367 -615 447 -820 10 -25 40 -97 66 -160 64 -157 184 -519 239 -725 74 -273
165 -736 210 -1065 106 -770 97 -1597 -24 -2105 -61 -256 -154 -477 -250 -590
-141 -168 -309 -290 -481 -351 -65 -24 -94 -27 -240 -31 -186 -6 -255 4 -420
58 -131 42 -359 157 -450 226 -241 182 -450 444 -827 1033 -102 160 -237 375
-242 385 -3 5 -21 35 -41 65 -50 78 -380 627 -486 810 -27 47 -101 171 -163
275 -62 105 -121 204 -130 220 -10 17 -62 102 -115 190 -54 88 -125 205 -158
260 -105 177 -384 629 -630 1025 -114 182 -265 417 -375 583 l-84 128 48 70
c46 65 204 295 303 440 326 475 703 864 1031 1064 216 132 445 217 690 256
149 24 378 19 525 -10z m-6535 -297 c162 -27 409 -108 562 -185 523 -262 1014
-762 1619 -1647 53 -78 80 -125 73 -130 -24 -15 -395 -559 -581 -852 -33 -52
-154 -238 -269 -413 -115 -174 -267 -408 -339 -520 -71 -111 -152 -238 -181
-282 -28 -44 -107 -168 -174 -275 -125 -198 -188 -295 -412 -635 -113 -170
-170 -254 -423 -620 -198 -286 -422 -568 -590 -740 -110 -113 -301 -264 -415
-328 -73 -41 -217 -94 -342 -126 -200 -52 -394 -59 -547 -20 -95 24 -257 102
-337 162 -273 207 -479 606 -541 1051 -22 151 -24 625 -5 891 41 565 123 1132
218 1510 103 410 292 949 459 1311 225 487 446 855 675 1124 272 321 590 564
867 663 87 32 229 66 320 77 85 10 251 3 363 -16z"/>
</g>
</svg>
