<?xml version="1.0" standalone="no"?>
<!DOCTYPE svg PUBLIC "-//W3C//DTD SVG 20010904//EN"
 "http://www.w3.org/TR/2001/REC-SVG-20010904/DTD/svg10.dtd">
<svg version="1.0" xmlns="http://www.w3.org/2000/svg"
 width="100.000000pt" height="100.000000pt" viewBox="0 0 100.000000 100.000000"
 preserveAspectRatio="xMidYMid meet">
<metadata>
Created by potrace 1.16, written by Peter Selinger 2001-2019
</metadata>
<g transform="translate(0.000000,100.000000) scale(0.100000,-0.100000)"
fill="#000000" stroke="none">
<path d="M693 981 c-65 -22 -127 -63 -150 -98 -19 -29 -23 -97 -9 -148 l8 -30
-38 38 c-66 67 -135 88 -213 67 -35 -9 -66 -33 -147 -112 -56 -55 -110 -115
-119 -134 -38 -80 -28 -151 31 -227 l37 -47 -41 -44 c-66 -71 -68 -147 -8
-205 63 -61 146 -49 225 32 19 20 47 38 66 41 18 4 38 13 45 21 7 9 29 15 51
15 32 0 43 6 66 35 16 20 37 35 49 35 26 0 74 36 74 56 0 8 7 14 16 14 30 0
81 31 93 56 19 43 13 72 -26 115 l-36 40 20 21 c19 18 25 19 54 9 98 -34 171
5 223 119 40 89 47 180 13 180 -7 0 -37 -25 -67 -55 -30 -30 -59 -55 -65 -55
-6 0 -37 27 -70 60 l-59 59 64 67 c60 63 63 67 45 80 -25 19 -69 17 -132 -5z
m34 -69 c-29 -29 -47 -57 -47 -71 0 -15 24 -47 67 -92 82 -85 100 -88 168 -24
l48 45 -7 -31 c-10 -51 -48 -118 -84 -150 -38 -33 -72 -37 -133 -13 l-41 17
-31 -32 -31 -31 -53 52 -53 52 31 32 31 32 -17 46 c-22 57 -14 104 23 138 39
37 118 75 162 77 8 1 -7 -21 -33 -47z m-323 -146 c35 -15 106 -73 106 -87 0
-5 -9 -9 -20 -9 -11 0 -20 -5 -20 -12 0 -7 52 -64 115 -128 116 -118 133 -148
103 -178 -15 -15 -53 -16 -79 -2 -17 10 -19 7 -19 -24 0 -27 -6 -40 -26 -52
-23 -16 -28 -16 -60 -1 l-34 17 6 -25 c13 -53 -38 -91 -87 -65 -13 7 -19 7
-19 0 0 -16 -38 -50 -57 -50 -22 0 -238 214 -258 256 -37 79 -9 148 107 261
114 110 165 131 242 99z m-185 -594 l45 -43 -40 -40 c-27 -26 -52 -42 -77 -46
-32 -5 -41 -1 -72 30 -50 50 -46 87 18 154 l31 33 25 -23 c14 -12 46 -41 70
-65z"/>
</g>
</svg>
